<?xml version="1.0" encoding="UTF-8"?><svg id="Layer_1" xmlns="http://www.w3.org/2000/svg" viewBox="0 0 379.96 88.55"><defs><style>.cls-1{fill:#fff;}</style></defs><g><g><path class="cls-1" d="M376.88,69.9l-11.14-6.51h0c-1.73,2.96-.73,6.77,2.23,8.49l9.43,5.51h2.17c1.02-2.77-.06-5.96-2.7-7.5Z"/><path class="cls-1" d="M379.11,30.62c.38-.66,.63-1.35,.76-2.06h-4.28l3.52,2.06Z"/><path class="cls-1" d="M365.65,75.34c-.38,.66-.63,1.35-.76,2.06h4.28l-3.52-2.06Z"/><path class="cls-1" d="M367.97,36.06l11.14,6.51h0c1.73-2.96,.73-6.77-2.23-8.49l-9.43-5.51h-2.17c-1.02,2.77,.06,5.96,2.7,7.5Z"/><path class="cls-1" d="M367.97,48l11.14,6.51h0c1.73-2.96,.73-6.77-2.23-8.49l-11.14-6.51h0c-1.73,2.96-.73,6.77,2.23,8.49Z"/><path class="cls-1" d="M367.97,59.95l11.14,6.51h0c1.73-2.96,.73-6.77-2.23-8.49l-11.14-6.51h0c-1.73,2.96-.73,6.77,2.23,8.49Z"/><path class="cls-1" d="M369.17,22.56c-.1,.1-1.87,2.01-1.27,4.68h12.06c0-2.08-.84-3.96-2.2-5.33-.95-.95-2.15-1.65-3.5-1.98v-.34c0-.53-.21-1-.56-1.35-.35-.35-.82-.56-1.35-.56-1.05,0-1.91,.86-1.91,1.91v.39c-1.28,.35-2.42,1.03-3.33,1.94-1.36,1.36-2.21,3.25-2.21,5.33h1.73s0-3.81,2.54-4.68Z"/><path class="cls-1" d="M369.17,83.4c-2.54-.86-2.54-4.68-2.54-4.68h-1.73c0,2.08,.84,3.96,2.21,5.33,.91,.91,2.05,1.59,3.33,1.94v.39c0,1.05,.86,1.91,1.91,1.91,.53,0,1.01-.21,1.35-.56,.34-.35,.56-.82,.56-1.35v-.34c1.35-.33,2.55-1.03,3.5-1.98,1.36-1.36,2.2-3.25,2.2-5.33h-12.06c-.6,2.67,1.18,4.57,1.27,4.68Z"/></g><g><path class="cls-1" d="M11.99,69.9L.85,63.4h0c-1.73,2.96-.73,6.77,2.23,8.49l9.43,5.51h2.17c1.02-2.77-.06-5.96-2.7-7.5Z"/><path class="cls-1" d="M14.22,30.62c.38-.66,.63-1.35,.76-2.06h-4.28l3.52,2.06Z"/><path class="cls-1" d="M.76,75.34c-.38,.66-.63,1.35-.76,2.06H4.29l-3.52-2.06Z"/><path class="cls-1" d="M3.08,36.06l11.14,6.51h0c1.73-2.96,.73-6.77-2.23-8.49L2.56,28.57H.38c-1.02,2.77,.06,5.96,2.7,7.5Z"/><path class="cls-1" d="M3.08,48l11.14,6.51h0c1.73-2.96,.73-6.77-2.23-8.49L.85,39.51H.85c-1.73,2.96-.73,6.77,2.23,8.49Z"/><path class="cls-1" d="M3.08,59.95l11.14,6.51h0c1.73-2.96,.73-6.77-2.23-8.49L.85,51.45H.85c-1.73,2.96-.73,6.77,2.23,8.49Z"/><path class="cls-1" d="M4.28,22.56c-.1,.1-1.87,2.01-1.27,4.68H15.07c0-2.08-.84-3.96-2.2-5.33-.95-.95-2.15-1.65-3.5-1.98v-.34c0-.53-.21-1-.56-1.35-.35-.35-.82-.56-1.35-.56-1.05,0-1.91,.86-1.91,1.91v.39c-1.28,.35-2.42,1.03-3.33,1.94-1.36,1.36-2.21,3.25-2.21,5.33H1.73s0-3.81,2.54-4.68Z"/><path class="cls-1" d="M4.28,83.4c-2.54-.86-2.54-4.68-2.54-4.68H0c0,2.08,.84,3.96,2.21,5.33,.91,.91,2.05,1.59,3.33,1.94v.39c0,1.05,.86,1.91,1.91,1.91,.53,0,1.01-.21,1.35-.56,.34-.35,.56-.82,.56-1.35v-.34c1.35-.33,2.55-1.03,3.5-1.98,1.36-1.36,2.2-3.25,2.2-5.33H3.01c-.6,2.67,1.18,4.57,1.27,4.68Z"/></g><g><path class="cls-1" d="M219.14,4.04s-2.5,10.27-14.09,4.03c0,0-2.01-.87-4.91-4.4,0,0-4.95-6.4-11.79-2.29-6.84-4.1-11.79,2.29-11.79,2.29-2.9,3.54-4.91,4.4-4.91,4.4-11.59,6.25-14.09-4.03-14.09-4.03-.6,16.48,17.42,15.04,17.42,15.04,10.21-.72,13.37-6.91,13.37-6.91,0,0,3.16,6.19,13.37,6.91,0,0,18.02,1.44,17.42-15.04Z"/><rect class="cls-1" x="24.72" y="16.23" width="125.32" height="2.88"/><rect class="cls-1" x="225.5" y="16.23" width="129.73" height="2.88"/><rect class="cls-1" x="24.72" y="85.67" width="330.51" height="2.88"/></g></g><g><path class="cls-1" d="M54.12,29.36v9.24h-7.13v36.94h-12.01V38.6h-7.1v-9.24h26.24Z"/><path class="cls-1" d="M84.3,56.4c0,4.64-.11,7.93-.33,9.86-.22,1.93-.9,3.69-2.05,5.29-1.15,1.6-2.71,2.82-4.66,3.68-1.96,.86-4.24,1.28-6.85,1.28s-4.69-.4-6.66-1.21-3.55-2.02-4.75-3.64c-1.2-1.62-1.91-3.38-2.14-5.28-.23-1.9-.34-5.23-.34-9.98v-7.9c0-4.64,.11-7.93,.33-9.86,.22-1.93,.9-3.69,2.05-5.29,1.15-1.6,2.71-2.82,4.66-3.68,1.96-.86,4.24-1.28,6.85-1.28s4.69,.4,6.66,1.21c1.97,.81,3.55,2.02,4.75,3.64,1.2,1.62,1.91,3.38,2.14,5.28,.23,1.9,.34,5.23,.34,9.98v7.9Zm-12.01-15.18c0-2.15-.12-3.52-.36-4.12-.24-.6-.73-.9-1.47-.9-.63,0-1.11,.24-1.44,.73-.33,.48-.5,1.92-.5,4.29v21.57c0,2.68,.11,4.34,.33,4.96s.73,.94,1.53,.94,1.34-.36,1.57-1.08c.23-.72,.34-2.44,.34-5.16v-21.22Z"/><path class="cls-1" d="M88.78,29.36h12.1c3.27,0,5.79,.26,7.54,.77,1.76,.51,3.08,1.26,3.96,2.23,.88,.97,1.48,2.14,1.8,3.52,.31,1.38,.47,3.51,.47,6.4v4.02c0,2.95-.3,5.1-.91,6.45-.61,1.35-1.73,2.39-3.35,3.11s-3.75,1.08-6.38,1.08h-3.22v18.6h-12.01V29.36Zm12.01,7.9v11.75c.34,.02,.64,.03,.88,.03,1.1,0,1.87-.27,2.3-.81,.43-.54,.64-1.67,.64-3.38v-3.79c0-1.58-.25-2.6-.74-3.08-.49-.48-1.52-.71-3.08-.71Z"/><path class="cls-1" d="M128.4,29.36h8.5c5.67,0,9.5,.22,11.51,.66s3.64,1.55,4.91,3.35c1.26,1.8,1.9,4.66,1.9,8.6,0,3.59-.45,6.01-1.34,7.25-.89,1.24-2.65,1.98-5.28,2.23,2.38,.59,3.97,1.38,4.79,2.37,.82,.99,1.33,1.9,1.53,2.72,.2,.83,.3,3.1,.3,6.83v12.18h-11.15v-15.35c0-2.47-.2-4-.58-4.59-.39-.59-1.41-.88-3.07-.88v20.82h-12.01V29.36Zm12.01,7.9v10.27c1.35,0,2.3-.19,2.84-.56,.54-.37,.81-1.57,.81-3.61v-2.54c0-1.46-.26-2.42-.78-2.88-.52-.46-1.48-.69-2.87-.69Z"/><path class="cls-1" d="M171.88,29.36v46.18h-12.01V29.36h12.01Z"/><path class="cls-1" d="M196.78,29.36v9.24l-8.94,27.7h8.94v9.24h-22.14v-6.7l9.24-30.24h-8.16v-9.24h21.05Z"/><path class="cls-1" d="M219.97,29.36v9.24l-8.94,27.7h8.94v9.24h-22.14v-6.7l9.24-30.24h-8.16v-9.24h21.05Z"/><path class="cls-1" d="M261.42,49.47h-12.01v-8.03c0-2.33-.13-3.79-.39-4.37-.26-.58-.82-.87-1.7-.87-.99,0-1.62,.35-1.88,1.06-.27,.7-.4,2.23-.4,4.56v21.45c0,2.24,.13,3.71,.4,4.39,.27,.68,.87,1.03,1.8,1.03s1.48-.34,1.75-1.03c.28-.69,.41-2.3,.41-4.83v-5.81h12.01v1.8c0,4.78-.34,8.17-1.01,10.17-.68,2-2.17,3.75-4.48,5.26-2.31,1.5-5.16,2.26-8.54,2.26s-6.42-.64-8.7-1.91c-2.28-1.27-3.79-3.04-4.54-5.29s-1.11-5.64-1.11-10.17v-13.49c0-3.33,.11-5.82,.34-7.49,.23-1.66,.91-3.27,2.04-4.81s2.7-2.75,4.71-3.64c2.01-.88,4.31-1.33,6.92-1.33,3.54,0,6.46,.68,8.76,2.05,2.3,1.37,3.81,3.07,4.54,5.11,.72,2.04,1.08,5.22,1.08,9.53v4.39Z"/><path class="cls-1" d="M293.03,29.36v30.86c0,3.5-.11,5.96-.34,7.37-.23,1.42-.9,2.87-2.03,4.36-1.12,1.49-2.6,2.62-4.44,3.39-1.84,.77-4,1.16-6.49,1.16-2.76,0-5.19-.46-7.3-1.37-2.11-.91-3.69-2.1-4.74-3.57s-1.66-3.01-1.85-4.64c-.19-1.63-.29-5.04-.29-10.25V29.36h12.01V63.99c0,2.02,.11,3.3,.33,3.87,.22,.56,.66,.84,1.33,.84,.76,0,1.25-.31,1.47-.93,.22-.62,.33-2.08,.33-4.38V29.36h12.01Z"/><path class="cls-1" d="M321.87,29.36v9.24h-7.13v36.94h-12.01V38.6h-7.1v-9.24h26.24Z"/><path class="cls-1" d="M350.05,43.34h-11.15v-3.42c0-1.6-.14-2.61-.43-3.05s-.76-.66-1.43-.66c-.72,0-1.27,.29-1.64,.89-.37,.59-.56,1.48-.56,2.68,0,1.54,.21,2.7,.63,3.48,.4,.78,1.53,1.72,3.39,2.82,5.35,3.17,8.71,5.78,10.1,7.81,1.39,2.04,2.08,5.32,2.08,9.84,0,3.29-.38,5.71-1.16,7.27-.77,1.56-2.26,2.87-4.46,3.92s-4.77,1.58-7.7,1.58c-3.21,0-5.96-.61-8.23-1.83s-3.76-2.77-4.46-4.65c-.7-1.88-1.06-4.55-1.06-8.02v-3.02h11.15v5.62c0,1.73,.16,2.84,.47,3.34,.31,.49,.87,.74,1.67,.74s1.39-.31,1.78-.94,.58-1.56,.58-2.8c0-2.72-.37-4.5-1.11-5.33-.76-.84-2.63-2.23-5.62-4.19-2.99-1.98-4.96-3.41-5.93-4.31-.97-.89-1.77-2.13-2.41-3.71-.64-1.58-.96-3.59-.96-6.05,0-3.54,.45-6.12,1.35-7.76,.9-1.64,2.36-2.91,4.38-3.84,2.02-.92,4.45-1.38,7.3-1.38,3.12,0,5.78,.5,7.97,1.51,2.2,1.01,3.65,2.28,4.36,3.81,.71,1.53,1.07,4.13,1.07,7.8v1.83Z"/></g></svg>